<svg id="图层_1" data-name="图层 1" xmlns="http://www.w3.org/2000/svg" viewBox="0 0 377.93 444.14"><defs><style>.cls-1{fill:#466901;}.cls-2{fill:#d70609;}.cls-3,.cls-4{fill:#fff;}.cls-4{font-size:70.3px;}.cls-4,.cls-5{font-family:PangMenZhengDao;}.cls-5{font-size:54.09px;fill:#ff8c5f;}</style></defs><circle class="cls-1" cx="188.97" cy="29.56" r="29.56"/><polygon class="cls-2" points="161.24 63.27 214.01 63.27 305.21 114.09 331.27 114.09 290.88 331.03 111.4 331.03 82.41 331.03 73.94 234.94 0 117.67 70.68 115.07 161.24 63.27"/><polyline class="cls-1" points="111.16 357.17 260.91 357.17 260.91 331.03 111.4 331.03"/><polygon class="cls-2" points="81.6 357.17 67.18 444.14 308.31 444.14 293.89 357.17 81.6 357.17"/><polygon class="cls-1" points="320.56 171.61 377.93 191.29 345.2 288.76 319.55 280.95 340.8 213.03 314.46 204.4 320.56 171.61"/><polygon class="cls-3" points="168.44 90.88 207.29 90.88 232.94 107.74 144.99 107.74 168.44 90.88"/><text class="cls-4" transform="translate(82.48 219.2)">MOKA</text><text class="cls-5" transform="translate(102.21 277.77)">SWAP</text></svg>